<svg width="58" height="56" viewBox="0 0 58 56" fill="none" xmlns="http://www.w3.org/2000/svg">
<path d="M53.5 22L31.5 1L10 22V34.5H14V23.5L31.5 6.5L49 23.5V34.5H53.5V22Z" stroke="black"/>
<path d="M43.5 25L31.5 12.5L19 25V34.5H23.5V27L31.5 19L39.5 27V34.5H43.5V25Z" stroke="black"/>
<path d="M27 29L31.5 25L35.5 29V34.5H27V29Z" stroke="black"/>
<path d="M10.5742 45.541C10.5781 45.5098 10.584 45.457 10.5918 45.3828C10.5996 45.3047 10.6055 45.2227 10.6094 45.1367C10.6211 45.0586 10.6309 44.9863 10.6387 44.9199C10.6504 44.8535 10.6621 44.7891 10.6738 44.7266C10.6816 44.7227 10.6855 44.7168 10.6855 44.709C10.6895 44.7012 10.6953 44.6934 10.7031 44.6855C10.707 44.6777 10.7148 44.6562 10.7266 44.6211C10.7383 44.582 10.75 44.541 10.7617 44.498C10.7773 44.4512 10.791 44.4102 10.8027 44.375C10.8184 44.3359 10.8301 44.3125 10.8379 44.3047C10.873 44.2148 10.9102 44.1367 10.9492 44.0703C10.9883 44.0039 11.0254 43.9395 11.0605 43.877C11.0801 43.8457 11.0996 43.8145 11.1191 43.7832C11.1387 43.752 11.1621 43.7148 11.1895 43.6719C11.2168 43.6406 11.2402 43.5918 11.2598 43.5254C11.2793 43.4707 11.3047 43.418 11.3359 43.3672C11.3672 43.3125 11.4102 43.2637 11.4648 43.2207C11.5273 43.1855 11.5723 43.1484 11.5996 43.1094C11.627 43.0703 11.6562 43.0293 11.6875 42.9863C11.7031 42.9668 11.7246 42.9414 11.752 42.9102C11.7832 42.8789 11.8398 42.8203 11.9219 42.7344C11.9453 42.707 11.9688 42.6797 11.9922 42.6523C12.0195 42.6211 12.0469 42.5977 12.0742 42.582C12.1055 42.5586 12.1289 42.543 12.1445 42.5352C12.1602 42.5273 12.1738 42.5195 12.1855 42.5117C12.2012 42.5 12.2168 42.4863 12.2324 42.4707C12.248 42.4551 12.2676 42.4355 12.291 42.4121C12.3145 42.3887 12.3438 42.3574 12.3789 42.3184C12.3945 42.2988 12.4277 42.2773 12.4785 42.2539C12.5293 42.2305 12.6172 42.1875 12.7422 42.125C12.7344 42.1172 12.752 42.1016 12.7949 42.0781C12.8379 42.0508 12.8809 42.0215 12.9238 41.9902C12.9707 41.9668 13.0137 41.9473 13.0527 41.9316C13.0957 41.9121 13.1406 41.8984 13.1875 41.8906C13.1914 41.8906 13.2031 41.8887 13.2227 41.8848C13.2422 41.877 13.2637 41.8691 13.2871 41.8613C13.3105 41.8496 13.334 41.8379 13.3574 41.8262C13.3809 41.8145 13.3984 41.8027 13.4102 41.791C13.418 41.791 13.4238 41.791 13.4277 41.791C13.4355 41.7871 13.4609 41.7793 13.5039 41.7676H13.6328L13.8262 41.7383C13.9941 41.7109 14.1543 41.6875 14.3066 41.668C14.4629 41.6484 14.623 41.6387 14.7871 41.6387H14.8516C14.9375 41.6387 15.0332 41.6406 15.1387 41.6445C15.2441 41.6484 15.3379 41.6621 15.4199 41.6855C15.4199 41.6855 15.4277 41.6875 15.4434 41.6914C15.459 41.6953 15.4746 41.7012 15.4902 41.709C15.5098 41.7129 15.5273 41.7188 15.543 41.7266C15.5625 41.7305 15.5742 41.7344 15.5781 41.7383C15.5859 41.7422 15.6074 41.748 15.6426 41.7559C15.6777 41.7598 15.7168 41.7656 15.7598 41.7734C15.8027 41.7773 15.8418 41.7832 15.877 41.791C15.916 41.7988 15.9414 41.8047 15.9531 41.8086C15.9609 41.8164 15.9766 41.8242 16 41.832C16.0273 41.8398 16.0625 41.8535 16.1055 41.873C16.1367 41.8887 16.166 41.9023 16.1934 41.9141C16.2207 41.9258 16.2383 41.9355 16.2461 41.9434C16.2578 41.9473 16.2676 41.9492 16.2754 41.9492C16.2871 41.9492 16.3008 41.9531 16.3164 41.9609C16.3359 41.9688 16.3516 41.9746 16.3633 41.9785C16.375 41.9824 16.3848 41.9844 16.3926 41.9844C16.416 42 16.457 42.0234 16.5156 42.0547C16.5781 42.082 16.6426 42.1133 16.709 42.1484C16.7754 42.1836 16.8398 42.2168 16.9023 42.248C16.9688 42.2793 17.0176 42.3027 17.0488 42.3184C17.0566 42.3223 17.0664 42.3262 17.0781 42.3301C17.0938 42.334 17.1113 42.3359 17.1309 42.3359C17.1621 42.3359 17.1855 42.3262 17.2012 42.3066C17.2168 42.2832 17.2305 42.2598 17.2422 42.2363C17.2617 42.1816 17.2832 42.1328 17.3066 42.0898C17.3301 42.0469 17.3555 42.0039 17.3828 41.9609C17.4102 41.9297 17.4297 41.9102 17.4414 41.9023C17.457 41.8945 17.4922 41.8906 17.5469 41.8906C17.6094 41.8906 17.6582 41.9141 17.6934 41.9609C17.7324 42.0078 17.7617 42.0645 17.7812 42.1309C17.8008 42.1934 17.8125 42.2598 17.8164 42.3301C17.8242 42.4004 17.8281 42.457 17.8281 42.5C17.8281 42.5977 17.8262 42.6973 17.8223 42.7988C17.8184 42.8965 17.8105 42.9961 17.7988 43.0977C17.7871 43.2695 17.7812 43.4512 17.7812 43.6426V43.7891C17.7734 43.8047 17.7637 43.8242 17.752 43.8477C17.7441 43.8672 17.7227 43.8906 17.6875 43.918C17.6602 43.9453 17.6367 43.9688 17.6172 43.9883C17.5977 44.0039 17.5664 44.0117 17.5234 44.0117C17.4844 44.0117 17.4375 44.002 17.3828 43.9824C17.3281 43.959 17.291 43.9238 17.2715 43.877C17.2051 43.7363 17.1406 43.6055 17.0781 43.4844C17.0156 43.3594 16.9473 43.2402 16.873 43.127C16.8027 43.0137 16.7227 42.9043 16.6328 42.7988C16.5469 42.6895 16.4453 42.5801 16.3281 42.4707C16.2109 42.373 16.082 42.2988 15.9414 42.248C15.8008 42.1934 15.6562 42.1445 15.5078 42.1016C15.4883 42.0938 15.4688 42.084 15.4492 42.0723C15.3594 42.0527 15.2773 42.041 15.2031 42.0371C15.1328 42.0332 15.0527 42.0312 14.9629 42.0312C14.7637 42.0312 14.5684 42.0742 14.377 42.1602C14.1855 42.2422 13.998 42.332 13.8145 42.4297C13.7949 42.4531 13.7637 42.4766 13.7207 42.5C13.6816 42.5195 13.6387 42.5391 13.5918 42.5586C13.5488 42.5859 13.5137 42.6074 13.4863 42.623C13.459 42.6387 13.4395 42.6504 13.4277 42.6582L13.2461 42.834C13.2227 42.8691 13.1973 42.9004 13.1699 42.9277C13.1426 42.9512 13.125 42.9668 13.1172 42.9746C13.1055 42.9746 13.0957 42.9785 13.0879 42.9863C13.084 42.9941 13.0723 43 13.0527 43.0039C13.0293 43.0195 13.0156 43.0293 13.0117 43.0332C13.0078 43.0332 13.002 43.0332 12.9941 43.0332C12.9512 43.0801 12.9062 43.1387 12.8594 43.209C12.8125 43.2754 12.7734 43.3398 12.7422 43.4023C12.7383 43.4062 12.7168 43.4434 12.6777 43.5137C12.6543 43.5488 12.6289 43.5898 12.6016 43.6367C12.5742 43.6836 12.5469 43.7305 12.5195 43.7773C12.4922 43.8203 12.4648 43.8633 12.4375 43.9062C12.4141 43.9453 12.3965 43.9766 12.3848 44C12.3027 44.1523 12.2363 44.3242 12.1855 44.5156C12.1348 44.707 12.0938 44.9023 12.0625 45.1016C12.0352 45.3008 12.0156 45.498 12.0039 45.6934C11.9961 45.8887 11.9922 46.0664 11.9922 46.2266C11.9922 46.4414 12.002 46.6523 12.0215 46.8594C12.0449 47.0664 12.0918 47.2754 12.1621 47.4863C12.166 47.4902 12.1738 47.502 12.1855 47.5215C12.1973 47.541 12.207 47.5645 12.2148 47.5918C12.2266 47.6152 12.2363 47.6387 12.2441 47.6621C12.2559 47.6816 12.2617 47.6934 12.2617 47.6973C12.2812 47.752 12.3008 47.8047 12.3203 47.8555C12.3398 47.9023 12.3555 47.9473 12.3672 47.9902C12.3867 48.0527 12.4082 48.1152 12.4316 48.1777C12.459 48.2363 12.4883 48.293 12.5195 48.3477C12.5859 48.4766 12.6777 48.6055 12.7949 48.7344C12.9121 48.8594 13.041 48.9766 13.1816 49.0859C13.3223 49.1953 13.4668 49.291 13.6152 49.373C13.7676 49.4551 13.9121 49.5117 14.0488 49.543C14.0645 49.543 14.0938 49.5449 14.1367 49.5488C14.1797 49.5527 14.2246 49.5547 14.2715 49.5547H14.4766C14.5117 49.5547 14.5645 49.5527 14.6348 49.5488C14.709 49.5449 14.7734 49.543 14.8281 49.543H14.9219C14.9297 49.543 14.9551 49.5371 14.998 49.5254C15.041 49.5098 15.0898 49.4922 15.1445 49.4727C15.1992 49.4531 15.2539 49.4336 15.3086 49.4141C15.3672 49.3906 15.4141 49.373 15.4492 49.3613C15.5078 49.3379 15.5605 49.3047 15.6074 49.2617C15.6582 49.2188 15.7031 49.1719 15.7422 49.1211C15.7812 49.0664 15.8125 49.0078 15.8359 48.9453C15.8594 48.8828 15.8711 48.8223 15.8711 48.7637V47.7207C15.8711 47.7168 15.873 47.6992 15.877 47.668C15.8809 47.6328 15.8848 47.5918 15.8887 47.5449C15.8965 47.498 15.9023 47.4492 15.9062 47.3984C15.9141 47.3477 15.9199 47.2988 15.9238 47.252C15.9316 47.1621 15.9375 47.0801 15.9414 47.0059C15.9492 46.9316 15.9531 46.8848 15.9531 46.8652V46.543C15.9531 46.5078 15.9492 46.4727 15.9414 46.4375C15.9375 46.3984 15.9316 46.3691 15.9238 46.3496C15.9082 46.3418 15.8672 46.3223 15.8008 46.291C15.7383 46.2559 15.6816 46.2285 15.6309 46.209C15.6191 46.2012 15.6074 46.1973 15.5957 46.1973C15.5879 46.1934 15.5781 46.1875 15.5664 46.1797C15.5352 46.1719 15.498 46.166 15.4551 46.1621C15.416 46.1582 15.3691 46.1543 15.3145 46.1504C15.2559 46.1465 15.1953 46.1406 15.1328 46.1328C15.0742 46.125 15.0195 46.1152 14.9688 46.1035C14.918 46.0879 14.877 46.0684 14.8457 46.0449C14.8145 46.0176 14.7988 45.9805 14.7988 45.9336C14.7988 45.9258 14.8008 45.918 14.8047 45.9102C14.8086 45.9023 14.8105 45.8945 14.8105 45.8867L14.8398 45.8047C14.8477 45.7891 14.8652 45.7695 14.8926 45.7461C14.9199 45.7188 14.9395 45.7012 14.9512 45.6934H15.8008C15.8047 45.6934 15.8203 45.6914 15.8477 45.6875C15.875 45.6836 15.9023 45.6797 15.9297 45.6758C15.9609 45.668 15.9883 45.6621 16.0117 45.6582C16.0391 45.6543 16.0566 45.6523 16.0645 45.6523H16.1172C16.125 45.6523 16.1484 45.6602 16.1875 45.6758C16.2305 45.6875 16.2637 45.6934 16.2871 45.6934H16.6445L16.8145 45.7109C16.877 45.7188 16.9336 45.7266 16.9844 45.7344C17.0391 45.7383 17.0742 45.7402 17.0898 45.7402C17.125 45.748 17.1895 45.752 17.2832 45.752C17.377 45.752 17.4746 45.752 17.5762 45.752C17.6816 45.752 17.7793 45.752 17.8691 45.752C17.9629 45.752 18.0273 45.748 18.0625 45.7402C18.0938 45.7441 18.1289 45.7559 18.168 45.7754C18.207 45.791 18.2422 45.8125 18.2734 45.8398C18.3086 45.8633 18.3379 45.8926 18.3613 45.9277C18.3848 45.9629 18.3965 46 18.3965 46.0391L18.3379 46.1094C18.3223 46.1133 18.2969 46.125 18.2617 46.1445C18.2305 46.1602 18.2109 46.1719 18.2031 46.1797C18.1797 46.1875 18.1387 46.1934 18.0801 46.1973C18.0215 46.1973 17.9609 46.2012 17.8984 46.209C17.8477 46.2168 17.7988 46.2227 17.752 46.2266C17.709 46.2266 17.6777 46.2266 17.6582 46.2266C17.5566 46.2383 17.4746 46.2559 17.4121 46.2793C17.3535 46.3027 17.3145 46.3672 17.2949 46.4727C17.2559 46.6602 17.2324 46.8496 17.2246 47.041C17.2207 47.2324 17.2188 47.4219 17.2188 47.6094C17.2188 47.6797 17.2188 47.7539 17.2188 47.832C17.2188 47.9102 17.2168 47.9883 17.2129 48.0664C17.2051 48.082 17.1973 48.1211 17.1895 48.1836C17.1855 48.2422 17.1816 48.3066 17.1777 48.377C17.1738 48.4473 17.1699 48.5137 17.166 48.5762C17.1621 48.6387 17.1602 48.6777 17.1602 48.6934C17.1602 48.7129 17.1602 48.7402 17.1602 48.7754C17.1641 48.8066 17.1699 48.8398 17.1777 48.875C17.1895 48.9062 17.2051 48.9355 17.2246 48.9629C17.2441 48.9863 17.2695 48.998 17.3008 48.998C17.332 48.998 17.3613 48.9941 17.3887 48.9863C17.4199 48.9746 17.4512 48.9648 17.4824 48.957C17.5215 48.9492 17.5566 48.9414 17.5879 48.9336C17.623 48.9219 17.6621 48.916 17.7051 48.916C17.7676 48.916 17.8027 48.9316 17.8105 48.9629C17.8223 48.9941 17.8281 49.0332 17.8281 49.0801C17.8281 49.127 17.8125 49.1719 17.7812 49.2148C17.7539 49.2578 17.7188 49.2988 17.6758 49.3379C17.6328 49.377 17.5859 49.4102 17.5352 49.4375C17.4883 49.4648 17.4453 49.4863 17.4062 49.502C17.3984 49.502 17.3887 49.5039 17.377 49.5078C17.3652 49.5117 17.3438 49.5176 17.3125 49.5254C17.2852 49.5293 17.2598 49.5352 17.2363 49.543C17.2129 49.5508 17.1973 49.5547 17.1895 49.5547C17.1543 49.5703 17.1152 49.5859 17.0723 49.6016C17.0332 49.6133 16.9922 49.627 16.9492 49.6426C16.9141 49.6543 16.8789 49.6699 16.8438 49.6895C16.8086 49.7051 16.7754 49.7168 16.7441 49.7246C16.7285 49.7246 16.6992 49.7305 16.6562 49.7422C16.6133 49.75 16.5879 49.7578 16.5801 49.7656C16.2441 49.832 15.9004 49.8926 15.5488 49.9473C15.2012 50.002 14.8438 50.0293 14.4766 50.0293C14.4648 50.0254 14.4531 50.0195 14.4414 50.0117C14.4336 50.0039 14.4238 50 14.4121 50C14.4043 49.9961 14.3984 49.9902 14.3945 49.9824C14.3789 49.9824 14.3535 49.9805 14.3184 49.9766C14.2871 49.9727 14.2539 49.9707 14.2188 49.9707C14.1797 49.9629 14.1406 49.957 14.1016 49.9531C14.0664 49.9492 14.0449 49.9473 14.0371 49.9473C13.9941 49.9434 13.9336 49.9355 13.8555 49.9238C13.7812 49.9082 13.7031 49.8906 13.6211 49.8711C13.5352 49.8594 13.457 49.8477 13.3867 49.8359C13.3164 49.8242 13.2773 49.8145 13.2695 49.8066C13.1914 49.791 13.1094 49.7598 13.0234 49.7129C12.9414 49.666 12.8613 49.6191 12.7832 49.5723C12.748 49.5527 12.7109 49.5332 12.6719 49.5137C12.6328 49.4941 12.5977 49.4707 12.5664 49.4434C12.4648 49.4082 12.375 49.3691 12.2969 49.3262C12.2188 49.2832 12.1309 49.2168 12.0332 49.127C12.0098 49.1113 11.9766 49.082 11.9336 49.0391C11.8906 48.9961 11.8438 48.9492 11.793 48.8984C11.7422 48.8477 11.6914 48.7969 11.6406 48.7461C11.5898 48.6914 11.5449 48.6426 11.5059 48.5996L11.4121 48.5176C11.4238 48.5176 11.4121 48.5 11.377 48.4648C11.3418 48.4297 11.3164 48.3945 11.3008 48.3594C11.293 48.3398 11.2871 48.3242 11.2832 48.3125C11.2832 48.2969 11.2793 48.2852 11.2715 48.2773C11.2715 48.2695 11.2617 48.2441 11.2422 48.2012C11.2227 48.1582 11.209 48.1328 11.2012 48.125C11.1934 48.1172 11.1797 48.1055 11.1602 48.0898C11.1406 48.0703 11.1211 48.0488 11.1016 48.0254C11.0742 47.9941 11.0527 47.9668 11.0371 47.9434C11.0254 47.9199 11.0156 47.9023 11.0078 47.8906C10.8555 47.582 10.7441 47.2676 10.6738 46.9473C10.6074 46.627 10.5742 46.293 10.5742 45.9453V45.541ZM30.8233 47.9609C30.8233 47.9688 30.8252 47.9844 30.8291 48.0078C30.833 48.0312 30.837 48.0566 30.8409 48.084C30.8487 48.1113 30.8545 48.1367 30.8584 48.1602C30.8623 48.1797 30.8643 48.1914 30.8643 48.1953V48.2891C30.8643 48.3203 30.8663 48.3652 30.8702 48.4238C30.8741 48.4785 30.878 48.5352 30.8819 48.5938C30.8897 48.6484 30.8955 48.6992 30.8995 48.7461C30.9073 48.7891 30.9151 48.8125 30.9229 48.8164C30.9229 48.832 30.9268 48.8535 30.9346 48.8809C30.9463 48.9043 30.9522 48.9297 30.9522 48.957V49.2207C30.9639 49.3379 31.001 49.4316 31.0635 49.502C31.1299 49.5684 31.208 49.6191 31.2979 49.6543C31.3877 49.6855 31.4834 49.7051 31.585 49.7129C31.6866 49.7207 31.7803 49.7246 31.8663 49.7246C31.8819 49.7246 31.9053 49.7246 31.9366 49.7246C31.9717 49.7246 32.0069 49.7246 32.042 49.7246C32.0772 49.7246 32.1104 49.7246 32.1416 49.7246C32.1768 49.7207 32.2022 49.7188 32.2178 49.7188C32.2569 49.6523 32.3135 49.6094 32.3877 49.5898C32.4659 49.5703 32.5381 49.5547 32.6045 49.543C32.6397 49.5391 32.6846 49.5332 32.7393 49.5254C32.7979 49.5137 32.8545 49.5039 32.9092 49.4961C32.9639 49.4844 33.0108 49.4746 33.0498 49.4668C33.0889 49.459 33.1104 49.4551 33.1143 49.4551C33.126 49.4473 33.1553 49.4277 33.2022 49.3965C33.2491 49.3652 33.2998 49.332 33.3545 49.2969C33.4092 49.2578 33.46 49.2227 33.5069 49.1914C33.5577 49.1602 33.5909 49.1387 33.6065 49.127C33.6104 49.123 33.6241 49.1152 33.6475 49.1035C33.6748 49.0918 33.7022 49.0801 33.7295 49.0684C33.7569 49.0527 33.7842 49.0391 33.8116 49.0273C33.8389 49.0156 33.8584 49.0078 33.8702 49.0039C33.878 48.9961 33.8995 48.9863 33.9346 48.9746C33.9737 48.9629 33.9971 48.957 34.0049 48.957C34.0205 48.9453 34.0381 48.9277 34.0577 48.9043C34.0811 48.8809 34.1026 48.8555 34.1221 48.8281C34.1455 48.7969 34.1651 48.7676 34.1807 48.7402C34.1963 48.7129 34.208 48.6934 34.2159 48.6816C34.2276 48.6816 34.2471 48.6777 34.2745 48.6699C34.3018 48.6582 34.3194 48.6523 34.3272 48.6523C34.4366 48.5391 34.5401 48.4141 34.6377 48.2773C34.7393 48.1406 34.8291 48.0078 34.9073 47.8789C34.9541 47.8008 34.9834 47.7266 34.9952 47.6562C35.0108 47.582 35.0381 47.5078 35.0772 47.4336C35.085 47.4258 35.0928 47.4102 35.1006 47.3867C35.1084 47.3633 35.1143 47.3516 35.1182 47.3516C35.1299 47.3203 35.1495 47.2773 35.1768 47.2227C35.208 47.1641 35.2237 47.127 35.2237 47.1113C35.2237 47.1035 35.2276 47.0859 35.2354 47.0586C35.2432 47.0273 35.251 46.9941 35.2588 46.959C35.2705 46.9238 35.2784 46.8926 35.2823 46.8652C35.2901 46.834 35.294 46.8145 35.294 46.8066C35.3252 46.7051 35.3643 46.5977 35.4112 46.4844C35.462 46.3672 35.4873 46.252 35.4873 46.1387V46.0859C35.4873 46.082 35.4854 46.0703 35.4815 46.0508C35.4776 46.0273 35.4717 46.0039 35.4639 45.9805C35.46 45.9531 35.4561 45.9297 35.4522 45.9102C35.4483 45.8867 35.4463 45.8711 35.4463 45.8633V45.5C35.4463 45.4961 35.4444 45.4824 35.4405 45.459C35.4366 45.4355 35.4307 45.4102 35.4229 45.3828C35.419 45.3555 35.4151 45.3301 35.4112 45.3066C35.4073 45.2793 35.4053 45.2598 35.4053 45.248C35.3975 45.2285 35.3858 45.2012 35.3702 45.166C35.3584 45.1309 35.3526 45.1094 35.3526 45.1016C35.337 45.0117 35.3233 44.9199 35.3116 44.8262C35.3038 44.7324 35.2862 44.6426 35.2588 44.5566C35.1885 44.3379 35.0948 44.1191 34.9776 43.9004C34.8643 43.6816 34.7334 43.4844 34.585 43.3086C34.5811 43.3008 34.5655 43.2852 34.5381 43.2617C34.5147 43.2344 34.4873 43.2051 34.4561 43.1738C34.4288 43.1426 34.4014 43.1133 34.3741 43.0859C34.3467 43.0586 34.3311 43.0391 34.3272 43.0273C34.3194 43.0234 34.3077 43.0117 34.292 42.9922C34.2803 42.9688 34.2666 42.9453 34.251 42.9219C34.2393 42.8945 34.2256 42.8711 34.21 42.8516C34.1983 42.8281 34.1905 42.8145 34.1866 42.8105C34.1788 42.8027 34.1553 42.7891 34.1163 42.7695C34.0772 42.7461 34.0538 42.7305 34.0459 42.7227C33.9561 42.6523 33.8604 42.5898 33.7588 42.5352C33.6612 42.4766 33.5674 42.418 33.4776 42.3594C33.458 42.3516 33.4366 42.3438 33.4131 42.3359C33.3897 42.3281 33.378 42.3223 33.378 42.3184C33.3702 42.3145 33.3506 42.3086 33.3194 42.3008C33.292 42.293 33.2608 42.2852 33.2256 42.2773C33.1905 42.2656 33.1573 42.2539 33.126 42.2422C33.0987 42.2305 33.0811 42.2207 33.0733 42.2129C33.0655 42.2129 33.0518 42.207 33.0323 42.1953C33.0166 42.1836 32.9971 42.1719 32.9737 42.1602C32.9541 42.1445 32.9346 42.1309 32.9151 42.1191C32.8995 42.1035 32.8916 42.0957 32.8916 42.0957C32.7784 42.0215 32.6592 41.9746 32.5342 41.9551C32.4092 41.9316 32.2842 41.9199 32.1592 41.9199H31.9366C31.8545 41.9043 31.7725 41.8848 31.6905 41.8613C31.6123 41.834 31.5284 41.8203 31.4385 41.8203C31.3916 41.8203 31.3428 41.834 31.292 41.8613C31.2452 41.8848 31.2002 41.916 31.1573 41.9551C31.1182 41.9941 31.085 42.0371 31.0577 42.084C31.0303 42.1309 31.0127 42.1738 31.0049 42.2129C30.9971 42.2402 30.9873 42.2793 30.9756 42.3301C30.9678 42.377 30.96 42.4258 30.9522 42.4766C30.9444 42.5234 30.9366 42.5664 30.9288 42.6055C30.9248 42.6445 30.9229 42.6699 30.9229 42.6816C30.9151 42.7012 30.9073 42.7461 30.8995 42.8164C30.8955 42.8828 30.8897 42.957 30.8819 43.0391C30.878 43.1172 30.8741 43.1914 30.8702 43.2617C30.8663 43.332 30.8643 43.375 30.8643 43.3906C30.8643 43.4062 30.8584 43.4395 30.8467 43.4902C30.835 43.5371 30.8272 43.5684 30.8233 43.584V43.7363V43.8887C30.8272 43.8965 30.835 43.9258 30.8467 43.9766C30.8584 44.0234 30.8643 44.0508 30.8643 44.0586C30.8721 44.1094 30.8799 44.1816 30.8877 44.2754C30.8995 44.3691 30.9092 44.4648 30.917 44.5625C30.9288 44.6562 30.9366 44.7422 30.9405 44.8203C30.9483 44.8984 30.9522 44.9453 30.9522 44.9609C30.9522 44.9766 30.9502 45 30.9463 45.0312C30.9463 45.0625 30.9444 45.0957 30.9405 45.1309C30.9366 45.1621 30.9327 45.1914 30.9288 45.2188C30.9288 45.2461 30.9268 45.2656 30.9229 45.2773V47.4688C30.9229 47.4766 30.919 47.4961 30.9112 47.5273C30.9073 47.5586 30.9014 47.5938 30.8936 47.6328C30.8897 47.6719 30.8838 47.7109 30.876 47.75C30.8682 47.7852 30.8643 47.8125 30.8643 47.832C30.8643 47.8398 30.8565 47.8633 30.8409 47.9023C30.8291 47.9375 30.8233 47.957 30.8233 47.9609ZM28.5791 50.0703C28.5127 50.0352 28.4659 50.0078 28.4385 49.9883C28.4112 49.9648 28.3975 49.918 28.3975 49.8477C28.3975 49.8125 28.4092 49.7793 28.4327 49.748C28.46 49.7168 28.4913 49.6895 28.5264 49.666C28.5616 49.6426 28.5987 49.625 28.6377 49.6133C28.6807 49.5977 28.7198 49.5879 28.7549 49.584C28.8409 49.5762 28.9405 49.5664 29.0538 49.5547C29.167 49.5391 29.2764 49.5312 29.3819 49.5312C29.417 49.5312 29.4502 49.5332 29.4815 49.5371C29.5127 49.541 29.5401 49.543 29.5635 49.543C29.6104 49.5117 29.6475 49.4707 29.6748 49.4199C29.7061 49.3652 29.7295 49.3145 29.7452 49.2676V48.7754V48.2891C29.7413 48.1719 29.7256 48.0547 29.6983 47.9375C29.6709 47.8203 29.6573 47.7031 29.6573 47.5859C29.6573 47.543 29.6592 47.5098 29.6631 47.4863C29.667 47.4629 29.6788 47.4297 29.6983 47.3867V46.1387C29.6788 46.0488 29.6592 45.959 29.6397 45.8691C29.6241 45.7793 29.6163 45.6895 29.6163 45.5996C29.6163 45.4668 29.6202 45.3359 29.628 45.207C29.6397 45.0781 29.6631 44.9531 29.6983 44.832V42.8105C29.6788 42.752 29.6651 42.6855 29.6573 42.6113C29.6495 42.5332 29.6455 42.4551 29.6455 42.377C29.6455 42.334 29.6455 42.293 29.6455 42.2539C29.6455 42.2109 29.6495 42.1738 29.6573 42.1426C29.6455 42.1348 29.6241 42.127 29.5928 42.1191C29.5655 42.1074 29.5342 42.0977 29.4991 42.0898C29.4639 42.0781 29.4307 42.0703 29.3995 42.0664C29.3721 42.0586 29.3526 42.0547 29.3409 42.0547C29.333 42.0547 29.3174 42.0527 29.294 42.0488C29.2745 42.0449 29.2491 42.043 29.2178 42.043C29.1514 42.043 29.083 42.0449 29.0127 42.0488C28.9463 42.0527 28.9073 42.0547 28.8955 42.0547C28.8604 42.0508 28.8194 42.0449 28.7725 42.0371C28.7256 42.0254 28.6788 42.0098 28.6319 41.9902C28.5889 41.9707 28.5518 41.9473 28.5205 41.9199C28.4932 41.8887 28.4795 41.8516 28.4795 41.8086C28.4795 41.7695 28.4893 41.7363 28.5088 41.709C28.5284 41.6816 28.5518 41.6582 28.5791 41.6387C28.6104 41.6191 28.6416 41.6035 28.6729 41.5918C28.7041 41.5801 28.7315 41.5684 28.7549 41.5566C28.8018 41.5527 28.8565 41.5508 28.919 41.5508C28.9815 41.5469 29.0459 41.5449 29.1123 41.5449C29.1788 41.5449 29.2432 41.5449 29.3057 41.5449C29.3682 41.5449 29.4209 41.5449 29.4639 41.5449C29.6045 41.5449 29.751 41.5469 29.9034 41.5508C30.0557 41.5547 30.1866 41.5703 30.2959 41.5977C30.3506 41.5508 30.419 41.5254 30.501 41.5215C30.583 41.5176 30.6592 41.5117 30.7295 41.5039C30.7452 41.5039 30.7725 41.5059 30.8116 41.5098C30.8545 41.5098 30.9034 41.5098 30.958 41.5098C31.0127 41.5098 31.0713 41.5117 31.1338 41.5156C31.1963 41.5156 31.2549 41.5156 31.3096 41.5156C31.3643 41.5156 31.4112 41.5137 31.4502 41.5098C31.4932 41.5059 31.5205 41.5039 31.5323 41.5039C31.544 41.5039 31.5713 41.5 31.6143 41.4922C31.6612 41.4844 31.71 41.4746 31.7608 41.4629C31.8116 41.4512 31.8584 41.4414 31.9014 41.4336C31.9483 41.4258 31.9795 41.4219 31.9952 41.4219C32.0069 41.4219 32.0362 41.4238 32.083 41.4277C32.1299 41.4277 32.1592 41.4375 32.1709 41.457H32.6045C32.7022 41.457 32.7959 41.459 32.8858 41.4629C32.9756 41.4629 33.0381 41.4668 33.0733 41.4746C33.085 41.4746 33.1065 41.4766 33.1377 41.4805C33.169 41.4805 33.2022 41.4824 33.2373 41.4863C33.2725 41.4902 33.3077 41.4941 33.3428 41.498C33.378 41.502 33.4034 41.5039 33.419 41.5039C33.6651 41.5508 33.9053 41.6035 34.1397 41.6621C34.378 41.7207 34.6026 41.8164 34.8135 41.9492C34.8213 41.957 34.837 41.9727 34.8604 41.9961C34.8838 42.0195 34.9073 42.0449 34.9307 42.0723C34.958 42.0957 34.9815 42.1191 35.001 42.1426C35.0245 42.1621 35.0401 42.1719 35.0479 42.1719C35.083 42.207 35.1182 42.2324 35.1534 42.248C35.1885 42.2637 35.2237 42.2773 35.2588 42.2891C35.2979 42.2969 35.337 42.3047 35.376 42.3125C35.4151 42.3203 35.4522 42.3359 35.4873 42.3594C35.6084 42.4414 35.7315 42.5547 35.8565 42.6992C35.9815 42.8438 36.0967 43.002 36.2022 43.1738C36.3077 43.3418 36.3995 43.5137 36.4776 43.6895C36.5596 43.8652 36.6163 44.0234 36.6475 44.1641C36.6514 44.1758 36.6573 44.207 36.6651 44.2578C36.6768 44.3086 36.6866 44.3652 36.6944 44.4277C36.7061 44.4863 36.7159 44.543 36.7237 44.5977C36.7315 44.6484 36.7373 44.6816 36.7413 44.6973C36.7452 44.7051 36.751 44.7188 36.7588 44.7383C36.7666 44.7578 36.7745 44.7812 36.7823 44.8086C36.794 44.832 36.8038 44.8555 36.8116 44.8789C36.8194 44.8984 36.8233 44.9121 36.8233 44.9199C36.8311 44.9277 36.835 44.9609 36.835 45.0195C36.835 45.0781 36.835 45.123 36.835 45.1543C36.835 45.5332 36.8077 45.9023 36.753 46.2617C36.6983 46.6211 36.6202 46.9844 36.5186 47.3516C36.4717 47.5156 36.4073 47.6719 36.3252 47.8203C36.2432 47.9648 36.1514 48.1035 36.0498 48.2363C35.9483 48.3691 35.837 48.4961 35.7159 48.6172C35.5987 48.7344 35.4776 48.8477 35.3526 48.957C35.3448 48.9609 35.3272 48.9766 35.2998 49.0039C35.2764 49.0312 35.2491 49.0605 35.2178 49.0918C35.1866 49.123 35.1573 49.1523 35.1299 49.1797C35.1026 49.2031 35.085 49.2168 35.0772 49.2207C35.0694 49.2324 35.044 49.248 35.001 49.2676C34.958 49.2832 34.9112 49.3008 34.8604 49.3203C34.8135 49.3398 34.7666 49.3574 34.7198 49.373C34.6729 49.3887 34.6436 49.3984 34.6319 49.4023C34.4834 49.4727 34.335 49.5469 34.1866 49.625C34.042 49.6992 33.8936 49.7637 33.7413 49.8184C33.6944 49.834 33.6495 49.8457 33.6065 49.8535C33.5635 49.8574 33.5205 49.8613 33.4776 49.8652C33.4346 49.8691 33.3897 49.873 33.3428 49.877C33.2959 49.8809 33.2471 49.8887 33.1963 49.9004C33.1885 49.9004 33.1729 49.9082 33.1495 49.9238C33.1299 49.9355 33.1182 49.9434 33.1143 49.9473C33.0987 49.9551 33.0772 49.9648 33.0498 49.9766C33.0264 49.9844 33.003 49.9922 32.9795 50C32.9561 50.0078 32.9346 50.0137 32.9151 50.0176C32.8995 50.0254 32.8916 50.0293 32.8916 50.0293H32.6045C32.5967 50.0293 32.5772 50.0312 32.5459 50.0352C32.5186 50.0391 32.4873 50.043 32.4522 50.0469C32.4209 50.0547 32.3897 50.0605 32.3584 50.0645C32.3272 50.0684 32.3077 50.0703 32.2998 50.0703C32.2959 50.0703 32.2725 50.0723 32.2295 50.0762C32.1866 50.0801 32.1573 50.082 32.1416 50.082C31.876 50.082 31.6104 50.0723 31.3448 50.0527C31.0791 50.0371 30.8174 50.0293 30.5596 50.0293H30.2959C30.2803 50.0293 30.2471 50.0352 30.1963 50.0469C30.1455 50.0625 30.1182 50.0703 30.1143 50.0703H30.0909H30.0498C30.0381 50.0703 30.0069 50.0684 29.9561 50.0645C29.9053 50.0605 29.8487 50.0547 29.7862 50.0469C29.7276 50.043 29.6709 50.0391 29.6163 50.0352C29.5655 50.0312 29.5323 50.0293 29.5166 50.0293H29.5049H29.4815C29.4385 50.041 29.3799 50.0605 29.3057 50.0879C29.2315 50.1152 29.169 50.1289 29.1182 50.1289H29.0655C29.0459 50.1289 29.0127 50.125 28.9659 50.1172C28.9229 50.1133 28.8741 50.1074 28.8194 50.0996C28.7686 50.0957 28.7198 50.0898 28.6729 50.082C28.6299 50.0781 28.5987 50.0742 28.5791 50.0703ZM49.8712 49.1504C49.8868 49.1621 49.9141 49.1797 49.9532 49.2031C49.9962 49.2227 50.0411 49.2461 50.088 49.2734C50.1348 49.2969 50.1778 49.3203 50.2169 49.3438C50.2598 49.3633 50.2891 49.3789 50.3048 49.3906C50.3126 49.3984 50.3263 49.4141 50.3458 49.4375C50.3653 49.4609 50.379 49.4727 50.3868 49.4727C50.3946 49.4805 50.4102 49.4902 50.4337 49.502C50.461 49.5098 50.4786 49.5176 50.4864 49.5254C50.4903 49.5254 50.5001 49.5273 50.5157 49.5312C50.5352 49.5352 50.5548 49.5391 50.5743 49.543C50.5938 49.543 50.6134 49.5449 50.6329 49.5488C50.6524 49.5527 50.6641 49.5547 50.668 49.5547C50.672 49.5586 50.6817 49.5664 50.6973 49.5781C50.7169 49.5898 50.7345 49.6016 50.7501 49.6133C50.7696 49.625 50.7872 49.6348 50.8028 49.6426C50.8184 49.6504 50.8282 49.6543 50.8321 49.6543C50.8399 49.6543 50.8555 49.6562 50.879 49.6602C50.9063 49.6641 50.9278 49.666 50.9434 49.666C50.9591 49.666 50.9805 49.6641 51.0079 49.6602C51.0352 49.6562 51.0567 49.6543 51.0723 49.6543C51.0763 49.6543 51.088 49.6523 51.1075 49.6484C51.127 49.6445 51.1485 49.6406 51.172 49.6367C51.1993 49.6289 51.2247 49.623 51.2481 49.6191C51.2716 49.6152 51.2872 49.6133 51.295 49.6133C51.3809 49.5977 51.4649 49.5898 51.547 49.5898C51.6329 49.5898 51.7149 49.5859 51.793 49.5781C51.8712 49.5703 51.9473 49.5547 52.0216 49.5312C52.0958 49.5039 52.1661 49.457 52.2325 49.3906C52.2325 49.3828 52.2384 49.3711 52.2501 49.3555C52.2657 49.3359 52.2794 49.3164 52.2911 49.2969C52.3067 49.2734 52.3204 49.2539 52.3321 49.2383C52.3438 49.2227 52.3497 49.2129 52.3497 49.209C52.3653 49.1934 52.3966 49.1641 52.4434 49.1211C52.4903 49.0781 52.5391 49.0312 52.5899 48.9805C52.6407 48.9297 52.6876 48.8848 52.7305 48.8457C52.7774 48.8027 52.8067 48.7754 52.8184 48.7637C52.8809 48.6855 52.9317 48.6035 52.9708 48.5176C53.0138 48.4277 53.0606 48.3438 53.1114 48.2656C53.1231 48.2578 53.1407 48.2363 53.1641 48.2012C53.1915 48.1621 53.2052 48.1406 53.2052 48.1367C53.2833 47.9766 53.3536 47.8223 53.4161 47.6738C53.4825 47.5215 53.5391 47.3711 53.586 47.2227C53.6329 47.0703 53.67 46.916 53.6973 46.7598C53.7247 46.6035 53.7384 46.4375 53.7384 46.2617C53.7384 46.0156 53.7208 45.7363 53.6856 45.4238C53.6544 45.1113 53.6016 44.7988 53.5274 44.4863C53.4532 44.1699 53.3575 43.8691 53.2403 43.584C53.127 43.2988 52.9864 43.0586 52.8184 42.8633C52.8067 42.8555 52.7872 42.8418 52.7598 42.8223C52.7325 42.8027 52.7149 42.7891 52.7071 42.7812C52.7071 42.7656 52.7013 42.7402 52.6895 42.7051C52.6817 42.666 52.6739 42.6406 52.6661 42.6289C52.6622 42.6289 52.6524 42.6211 52.6368 42.6055C52.6212 42.5898 52.6036 42.5723 52.5841 42.5527C52.5684 42.5332 52.5509 42.5156 52.5313 42.5C52.5157 42.4805 52.504 42.4668 52.4962 42.459C52.422 42.3965 52.3419 42.3477 52.2559 42.3125C52.17 42.2773 52.0841 42.2383 51.9981 42.1953C51.8341 42.1055 51.672 42.0293 51.5118 41.9668C51.3516 41.9043 51.172 41.873 50.9727 41.873C50.8595 41.873 50.7481 41.8887 50.6388 41.9199C50.5333 41.9512 50.422 41.9824 50.3048 42.0137C50.2423 42.0332 50.1778 42.0684 50.1114 42.1191C50.045 42.1699 49.9766 42.2266 49.9063 42.2891C49.8399 42.3516 49.7755 42.4141 49.713 42.4766C49.6505 42.5391 49.5938 42.5898 49.543 42.6289C49.5352 42.6367 49.5196 42.6504 49.4962 42.6699C49.4727 42.6895 49.4473 42.7109 49.42 42.7344C49.3966 42.7539 49.3731 42.7734 49.3497 42.793C49.3263 42.8086 49.3126 42.8184 49.3087 42.8223C49.2735 42.8848 49.2384 42.9434 49.2032 42.998C49.172 43.0449 49.1427 43.0938 49.1153 43.1445C49.088 43.1953 49.0645 43.2363 49.045 43.2676C49.0098 43.3301 48.9864 43.3965 48.9747 43.4668C48.9669 43.5332 48.9473 43.6016 48.9161 43.6719C48.8458 43.8594 48.7677 44.0488 48.6817 44.2402C48.5997 44.4316 48.545 44.6289 48.5177 44.832C48.5177 44.8438 48.5157 44.875 48.5118 44.9258C48.5079 44.9766 48.502 45.0332 48.4942 45.0957C48.4903 45.1543 48.4864 45.2129 48.4825 45.2715C48.4786 45.3262 48.4747 45.3613 48.4708 45.377L48.4473 45.4121C48.4356 45.4316 48.4298 45.4473 48.4298 45.459V45.6641V45.8516C48.4376 45.8594 48.4454 45.8691 48.4532 45.8809C48.4649 45.8887 48.4708 45.8965 48.4708 45.9043C48.5255 46.0293 48.5567 46.1602 48.5645 46.2969C48.5763 46.4336 48.5919 46.5703 48.6114 46.707C48.6388 46.8906 48.6817 47.0625 48.7403 47.2227C48.8028 47.3828 48.8614 47.5547 48.9161 47.7383C48.9161 47.7461 48.9239 47.7754 48.9395 47.8262C48.9591 47.873 48.9688 47.9043 48.9688 47.9199C48.9727 47.9277 48.9923 47.9551 49.0274 48.002C49.0665 48.0488 49.0899 48.082 49.0977 48.1016C49.1055 48.1289 49.1134 48.1543 49.1212 48.1777C49.129 48.1973 49.1348 48.2168 49.1388 48.2363C49.1466 48.252 49.1505 48.2617 49.1505 48.2656C49.1544 48.2773 49.172 48.3047 49.2032 48.3477C49.2345 48.3867 49.2677 48.4297 49.3028 48.4766C49.338 48.5195 49.3692 48.5605 49.3966 48.5996C49.4278 48.6348 49.4473 48.6582 49.4552 48.6699L49.4962 48.7637C49.504 48.7715 49.5235 48.791 49.5548 48.8223C49.586 48.8496 49.6192 48.8809 49.6544 48.916C49.6934 48.9512 49.7286 48.9844 49.7598 49.0156C49.7911 49.0469 49.8106 49.0645 49.8184 49.0684C49.8184 49.0762 49.8243 49.0898 49.836 49.1094C49.8477 49.1289 49.8595 49.1426 49.8712 49.1504ZM50.2227 50C50.2071 50 50.1876 49.9961 50.1641 49.9883C50.1407 49.9766 50.127 49.9707 50.1231 49.9707C50.1153 49.9668 50.0919 49.959 50.0528 49.9473C50.0138 49.9316 49.9708 49.918 49.9239 49.9062C49.877 49.8906 49.8321 49.877 49.7891 49.8652C49.7501 49.8496 49.7266 49.8398 49.7188 49.8359C49.672 49.8125 49.629 49.791 49.5899 49.7715C49.5548 49.748 49.5196 49.7246 49.4845 49.7012C49.4532 49.6777 49.42 49.6543 49.3848 49.6309C49.3497 49.6035 49.3106 49.5781 49.2677 49.5547C49.2598 49.5508 49.2442 49.5449 49.2208 49.5371C49.1973 49.5254 49.17 49.5137 49.1388 49.502C49.1114 49.4863 49.086 49.4727 49.0626 49.4609C49.0391 49.4492 49.0235 49.4395 49.0157 49.4316C48.8595 49.3613 48.7052 49.2676 48.5528 49.1504C48.4044 49.0332 48.2638 48.9043 48.1309 48.7637C47.9981 48.6191 47.879 48.4668 47.7735 48.3066C47.672 48.1426 47.5899 47.9805 47.5274 47.8203C47.5274 47.8125 47.5235 47.793 47.5157 47.7617C47.5118 47.7305 47.504 47.6973 47.4923 47.6621C47.4845 47.627 47.4747 47.5938 47.463 47.5625C47.4552 47.5312 47.4493 47.5117 47.4454 47.5039C47.4454 47.5039 47.4415 47.498 47.4337 47.4863C47.4259 47.4707 47.4161 47.4551 47.4044 47.4395C47.3927 47.4238 47.3809 47.4102 47.3692 47.3984C47.3575 47.3828 47.3497 47.375 47.3458 47.375C47.3458 47.3711 47.3438 47.3613 47.3399 47.3457C47.336 47.3262 47.3321 47.3066 47.3282 47.2871C47.3282 47.2676 47.3263 47.248 47.3223 47.2285C47.3184 47.209 47.3165 47.1973 47.3165 47.1934C47.3126 47.1895 47.3067 47.1797 47.2989 47.1641C47.2911 47.1484 47.2813 47.1309 47.2696 47.1113C47.2618 47.0918 47.254 47.0742 47.2462 47.0586C47.2384 47.0391 47.2345 47.0234 47.2345 47.0117C47.2227 47 47.2091 46.9668 47.1934 46.9121C47.1778 46.8535 47.17 46.8125 47.17 46.7891C47.1661 46.7461 47.1583 46.6816 47.1466 46.5957C47.1388 46.5059 47.1309 46.416 47.1231 46.3262C47.1153 46.2363 47.1075 46.1543 47.0997 46.0801C47.0919 46.002 47.088 45.9531 47.088 45.9336V45.6113C47.088 45.377 47.1075 45.1484 47.1466 44.9258C47.1856 44.7031 47.2423 44.4727 47.3165 44.2344C47.3321 44.1914 47.3516 44.1582 47.3751 44.1348C47.4024 44.1113 47.4259 44.0723 47.4454 44.0176C47.461 43.9785 47.4766 43.9238 47.4923 43.8535C47.5118 43.7793 47.5313 43.7051 47.5509 43.6309C47.5743 43.5527 47.5977 43.4805 47.6212 43.4141C47.6485 43.3438 47.6778 43.2949 47.7091 43.2676L48.6114 42.377C48.7091 42.334 48.8009 42.2715 48.8868 42.1895C48.9727 42.1074 49.0606 42.0312 49.1505 41.9609C49.1544 41.9609 49.1661 41.959 49.1856 41.9551C49.2091 41.9473 49.2247 41.9395 49.2325 41.9316C49.3458 41.8809 49.463 41.8281 49.5841 41.7734C49.7052 41.7148 49.8243 41.6758 49.9415 41.6562C49.9454 41.6562 49.9532 41.6543 49.9649 41.6504C49.9766 41.6426 49.9923 41.6387 50.0118 41.6387C50.043 41.6387 50.0743 41.6348 50.1055 41.627C50.1368 41.6191 50.1563 41.6152 50.1641 41.6152C50.168 41.6152 50.1856 41.6133 50.2169 41.6094C50.2481 41.6055 50.2833 41.6016 50.3223 41.5977C50.3614 41.5898 50.4005 41.582 50.4395 41.5742C50.4825 41.5664 50.5157 41.5605 50.5391 41.5566C50.5391 41.5449 50.5587 41.5371 50.5977 41.5332C50.6368 41.5293 50.6602 41.5273 50.668 41.5273C50.6759 41.5273 50.6934 41.5273 50.7208 41.5273C50.752 41.5234 50.7852 41.5195 50.8204 41.5156C50.8555 41.5117 50.8868 41.5098 50.9141 41.5098C50.9454 41.5059 50.9649 41.5039 50.9727 41.5039C50.9805 41.5039 51.002 41.5 51.0372 41.4922C51.0723 41.4805 51.0958 41.4746 51.1075 41.4746H51.1661C51.2833 41.4746 51.422 41.4824 51.5821 41.498C51.7462 41.5137 51.9102 41.5391 52.0743 41.5742C52.2423 41.6055 52.4024 41.6465 52.5548 41.6973C52.711 41.7441 52.8399 41.8027 52.9415 41.873C52.9415 41.873 52.9473 41.8809 52.9591 41.8965C52.9747 41.9082 52.9903 41.9238 53.0059 41.9434C53.0216 41.959 53.0352 41.9746 53.047 41.9902C53.0626 42.002 53.0704 42.0098 53.0704 42.0137C53.1134 42.0449 53.1563 42.0703 53.1993 42.0898C53.2423 42.1055 53.2852 42.1211 53.3282 42.1367C53.3712 42.1523 53.4122 42.1699 53.4513 42.1895C53.4903 42.209 53.5294 42.2383 53.5684 42.2773C53.7091 42.4102 53.8321 42.5391 53.9376 42.6641C54.047 42.7852 54.1446 42.9102 54.2305 43.0391C54.3204 43.168 54.4044 43.3066 54.4825 43.4551C54.5606 43.5996 54.6407 43.7598 54.7227 43.9355C54.7266 43.9434 54.7364 43.9629 54.752 43.9941C54.7677 44.0215 54.7813 44.0527 54.793 44.0879C54.8087 44.1191 54.8223 44.1504 54.8341 44.1816C54.8497 44.2129 54.8595 44.2305 54.8634 44.2344C54.8634 44.2461 54.8692 44.2598 54.8809 44.2754C54.8888 44.2871 54.8966 44.2969 54.9044 44.3047C54.9513 44.3711 54.9786 44.4453 54.9864 44.5273C54.9981 44.6094 55.004 44.6934 55.004 44.7793C55.0079 44.8652 55.0118 44.9512 55.0157 45.0371C55.0196 45.123 55.0372 45.2031 55.0684 45.2773C55.0723 45.2969 55.0743 45.3301 55.0743 45.377C55.0782 45.4199 55.0802 45.4688 55.0802 45.5234C55.0841 45.5742 55.086 45.623 55.086 45.6699C55.086 45.7168 55.086 45.748 55.086 45.7637C55.086 45.9824 55.0782 46.2012 55.0626 46.4199C55.0509 46.6387 55.0294 46.8555 54.9981 47.0703C54.9981 47.0781 54.9923 47.0977 54.9805 47.1289C54.9688 47.1602 54.9571 47.1816 54.9454 47.1934C54.9454 47.1973 54.9415 47.209 54.9337 47.2285C54.9259 47.248 54.9161 47.2676 54.9044 47.2871C54.8927 47.3066 54.8829 47.3262 54.8751 47.3457C54.8673 47.3613 54.8634 47.3711 54.8634 47.375C54.8595 47.3828 54.8536 47.4023 54.8458 47.4336C54.8419 47.4648 54.838 47.498 54.8341 47.5332C54.8302 47.5684 54.8263 47.6016 54.8223 47.6328C54.8184 47.6641 54.8165 47.6836 54.8165 47.6914C54.7891 47.7812 54.7423 47.8652 54.6759 47.9434C54.6095 48.0176 54.5548 48.0977 54.5118 48.1836C54.4571 48.2656 54.4044 48.3496 54.3536 48.4355C54.3028 48.5215 54.2462 48.5996 54.1837 48.6699C54.1798 48.6816 54.1661 48.7012 54.1427 48.7285C54.1231 48.752 54.1114 48.7637 54.1075 48.7637C53.9552 48.8809 53.8126 48.998 53.6798 49.1152C53.547 49.2285 53.4044 49.334 53.252 49.4316C53.2091 49.459 53.1641 49.498 53.1173 49.5488C53.0743 49.5957 53.0313 49.6309 52.9884 49.6543C52.9766 49.6621 52.9454 49.6758 52.8946 49.6953C52.8477 49.7148 52.795 49.7383 52.7364 49.7656C52.6817 49.7891 52.6309 49.8125 52.5841 49.8359C52.5372 49.8555 52.5079 49.8691 52.4962 49.877C52.4884 49.877 52.4786 49.8789 52.4669 49.8828C52.4591 49.8867 52.4513 49.8906 52.4434 49.8945C52.4317 49.8984 52.422 49.9023 52.4141 49.9062C52.4024 49.9141 52.3751 49.9219 52.3321 49.9297C52.293 49.9336 52.2501 49.9395 52.2032 49.9473C52.1563 49.9551 52.1134 49.9609 52.0743 49.9648C52.0352 49.9688 52.0098 49.9707 51.9981 49.9707C51.9903 49.9785 51.9688 49.9863 51.9337 49.9941C51.8985 49.998 51.8751 50 51.8634 50C51.7735 50.0352 51.672 50.0605 51.5587 50.0762C51.4493 50.0918 51.3497 50.0996 51.2598 50.0996C51.2364 50.0996 51.2032 50.0977 51.1602 50.0938C51.1212 50.0938 51.0821 50.0918 51.043 50.0879C51.004 50.0879 50.9688 50.0859 50.9376 50.082C50.9102 50.082 50.8946 50.082 50.8907 50.082C50.8634 50.082 50.8165 50.0781 50.7501 50.0703C50.6876 50.0664 50.6212 50.0605 50.5509 50.0527C50.4805 50.0449 50.4141 50.0352 50.3516 50.0234C50.2891 50.0156 50.2462 50.0078 50.2227 50Z" fill="black"/>
</svg>
