<svg width="58" height="56" viewBox="0 0 58 56" fill="none" xmlns="http://www.w3.org/2000/svg">
<path d="M53.5 22L31.5 1L10 22V34.5H14V23.5L31.5 6.5L49 23.5V34.5H53.5V22Z" stroke="black"/>
<path d="M43.5 25L31.5 12.5L19 25V34.5H23.5V27L31.5 19L39.5 27V34.5H43.5V25Z" stroke="black"/>
<path d="M27 29L31.5 25L35.5 29V34.5H27V29Z" stroke="black"/>
<path d="M16.468 50.828C16.196 50.828 16.012 50.684 15.916 50.396C15.828 50.116 15.784 49.808 15.784 49.472L15.82 49.124C15.428 49.372 14.964 49.568 14.428 49.712C13.9 49.856 13.344 49.928 12.76 49.928C12.336 49.928 11.96 49.832 11.632 49.64C11.304 49.44 11.048 49.172 10.864 48.836C10.688 48.492 10.6 48.104 10.6 47.672C10.6 47.016 10.856 46.396 11.368 45.812C11.88 45.22 12.508 44.74 13.252 44.372C14.004 43.996 14.7 43.784 15.34 43.736C15.66 43.704 15.932 43.776 16.156 43.952C16.38 44.12 16.492 44.356 16.492 44.66C16.324 44.66 16.124 44.616 15.892 44.528C15.86 44.52 15.776 44.496 15.64 44.456C15.504 44.416 15.364 44.396 15.22 44.396C14.652 44.396 14.048 44.56 13.408 44.888C12.776 45.216 12.244 45.652 11.812 46.196C11.388 46.732 11.176 47.296 11.176 47.888C11.176 48.168 11.26 48.412 11.428 48.62C11.604 48.82 11.82 48.976 12.076 49.088C12.34 49.192 12.604 49.244 12.868 49.244C13.5 49.244 14.02 49.22 14.428 49.172C14.836 49.116 15.188 48.976 15.484 48.752C15.78 48.52 15.928 48.168 15.928 47.696C15.928 47.472 15.88 47.316 15.784 47.228H13.648C13.536 47.228 13.428 47.172 13.324 47.06C13.228 46.948 13.18 46.836 13.18 46.724C13.18 46.524 13.24 46.424 13.36 46.424C13.456 46.424 13.608 46.464 13.816 46.544C14.008 46.632 14.172 46.676 14.308 46.676C14.484 46.676 14.756 46.652 15.124 46.604C15.188 46.596 15.304 46.584 15.472 46.568C15.64 46.552 15.792 46.544 15.928 46.544C16.064 46.544 16.196 46.604 16.324 46.724C16.46 46.836 16.524 46.964 16.516 47.108L16.444 49.88C16.5 49.992 16.596 50.088 16.732 50.168C16.78 50.192 16.82 50.22 16.852 50.252C16.884 50.292 16.904 50.332 16.912 50.372C16.952 50.46 16.912 50.556 16.792 50.66C16.672 50.772 16.564 50.828 16.468 50.828ZM29.9314 49.28C29.9314 49.184 29.9394 49.112 29.9554 49.064C29.9794 49.008 30.0314 48.98 30.1114 48.98C30.1834 48.98 30.2634 48.996 30.3514 49.028C30.4474 49.06 30.5394 49.096 30.6274 49.136C30.8514 49.232 31.0514 49.304 31.2274 49.352C31.4114 49.4 31.6394 49.424 31.9114 49.424C32.9034 49.424 33.6474 49.188 34.1434 48.716C34.6474 48.244 34.8994 47.628 34.8994 46.868C34.8994 46.188 34.7074 45.592 34.3234 45.08C33.9394 44.56 33.4514 44.152 32.8594 43.856C32.2754 43.56 31.6794 43.384 31.0714 43.328L31.7554 48.404C31.7554 48.54 31.7354 48.652 31.6954 48.74C31.6634 48.828 31.5834 48.872 31.4554 48.872C31.4234 48.888 31.3634 48.672 31.2754 48.224C31.1874 47.776 31.0674 47.116 30.9154 46.244C30.7394 45.228 30.6034 44.476 30.5074 43.988C30.4114 43.492 30.3354 43.208 30.2794 43.136C29.6154 43.136 29.0714 43.172 28.6474 43.244C28.2234 43.308 27.8994 43.384 27.6754 43.472C27.4514 43.56 27.3594 43.604 27.3994 43.604C27.3594 43.588 27.3314 43.564 27.3154 43.532C27.2994 43.492 27.2874 43.436 27.2794 43.364C27.2634 43.292 27.2514 43.24 27.2434 43.208C27.2434 43.016 27.4154 42.864 27.7594 42.752C28.1034 42.64 28.4634 42.564 28.8394 42.524C29.2234 42.484 29.4794 42.464 29.6074 42.464C30.4634 42.464 31.3554 42.64 32.2834 42.992C33.2114 43.336 33.9914 43.844 34.6234 44.516C35.2554 45.188 35.5714 45.984 35.5714 46.904C35.5714 47.592 35.3994 48.18 35.0554 48.668C34.7114 49.148 34.2594 49.512 33.6994 49.76C33.1474 50.008 32.5554 50.132 31.9234 50.132C31.4114 50.132 30.9514 50.052 30.5434 49.892C30.1354 49.732 29.9314 49.528 29.9314 49.28ZM50.3119 50.012C49.6479 50.012 49.0519 49.876 48.5239 49.604C48.0039 49.332 47.5959 48.948 47.2999 48.452C47.0039 47.956 46.8559 47.384 46.8559 46.736C46.8559 46.296 46.9439 45.892 47.1199 45.524C47.2959 45.156 47.5519 44.864 47.8879 44.648C48.2239 44.424 48.6199 44.312 49.0759 44.312C49.9399 44.312 50.7079 44.46 51.3799 44.756C52.0599 45.044 52.5879 45.46 52.9639 46.004C53.3479 46.548 53.5399 47.176 53.5399 47.888C53.5399 48.36 53.3639 48.756 53.0119 49.076C52.6679 49.396 52.2439 49.632 51.7399 49.784C51.2439 49.936 50.7679 50.012 50.3119 50.012ZM50.0839 49.388C50.8839 49.388 51.5559 49.268 52.0999 49.028C52.6519 48.788 52.9279 48.388 52.9279 47.828C52.9279 46.852 52.5519 46.12 51.7999 45.632C51.0479 45.136 50.0879 44.888 48.9199 44.888C48.3599 44.888 47.9639 45.056 47.7319 45.392C47.5079 45.72 47.3959 46.168 47.3959 46.736C47.3959 47.208 47.5079 47.648 47.7319 48.056C47.9639 48.456 48.2839 48.78 48.6919 49.028C49.0999 49.268 49.5639 49.388 50.0839 49.388Z" fill="black"/>
</svg>
